<svg xmlns="http://www.w3.org/2000/svg" xmlns:xlink="http://www.w3.org/1999/xlink" version="1.1" id="Layer_1" x="0px" y="0px" width="100%" viewBox="0 0 688 544" enable-background="new 0 0 688 544" xml:space="preserve">
<path fill="#34495e" opacity="1.000000" stroke="none" d=" M689.000000,236.545898   C678.646606,245.429230 670.352722,255.939713 660.625427,265.017609   C639.888489,284.370117 617.694092,301.883240 594.685486,318.419861   C591.287292,320.862244 588.682739,320.822418 585.364929,318.161530   C567.180115,303.577209 549.222229,288.750092 532.211487,272.780975   C522.624023,263.780579 513.119019,254.710876 503.758698,245.473785   C499.125122,240.901276 496.911102,236.226456 496.406586,229.448746   C494.447662,203.134018 486.680542,178.596466 471.725983,156.519196   C452.511292,128.152740 426.382568,108.800507 394.094086,98.268288   C373.135529,91.431786 351.356995,90.426720 329.431488,93.905014   C297.046906,99.042526 269.720490,113.370323 247.166397,137.299881   C225.453598,160.336823 213.566818,187.745392 209.375244,218.734528   C205.466553,247.632248 209.778336,275.402618 221.636673,302.050079   C232.295410,326.001831 248.785049,345.202576 270.545898,359.370331   C300.594513,378.933899 334.036835,387.124756 369.816528,385.623352   C374.443848,385.429138 379.028809,384.304169 383.643860,383.688843   C385.065521,383.499268 386.894012,382.917511 387.516205,384.852448   C388.106201,386.687347 386.924347,388.084778 385.434113,388.996338   C381.998901,391.097595 378.025299,390.765503 374.281067,390.950897   C352.332275,392.037659 330.517029,391.764465 308.581909,388.810822   C281.863556,385.213074 256.145081,378.393860 230.690811,369.912567   C203.579315,360.879089 177.840851,348.799133 153.025421,334.848358   C128.642258,321.140656 105.582268,305.437622 83.984833,287.477295   C66.796379,273.183441 50.865818,257.671387 35.120857,241.898010   C34.650997,241.427277 34.204594,240.930313 33.777176,240.420471   C25.781525,230.883545 25.652704,230.753311 34.600632,221.781143   C48.464409,207.879868 62.086948,193.746490 77.100769,181.007156   C119.585037,144.958969 166.013611,115.514778 217.992645,95.007431   C238.304947,86.993607 258.818512,79.732826 280.179749,75.136681   C311.684174,68.358109 343.380035,64.371704 375.799011,66.460258   C395.310608,67.717270 414.580994,70.203209 433.639038,74.107750   C452.551086,77.982361 470.974243,83.784180 489.069031,90.646095   C502.930969,95.902809 516.499023,101.842186 529.840881,108.203163   C546.496887,116.144211 562.545044,125.266594 578.238342,135.063705   C594.221069,145.041473 609.635620,155.754700 624.315796,167.510284   C644.326599,183.534439 663.833252,200.131378 680.684753,219.603180   C682.953918,222.225189 685.829285,224.322540 688.711975,226.831421   C689.000000,230.030594 689.000000,233.061188 689.000000,236.545898  M600.326599,246.932724   C601.969849,245.286530 603.829224,243.803406 605.217041,241.964417   C609.939941,235.706223 609.966431,228.795349 606.514893,222.183807   C602.947327,215.350021 596.717285,211.618362 589.013977,211.606369   C581.508667,211.594681 573.568604,218.118622 571.410400,225.084671   C568.936401,233.069885 571.018555,240.088882 577.377808,245.201019   C585.503784,251.733383 591.109192,252.280685 600.326599,246.932724  z"/>
<path fill="#34495e" opacity="1.000000" stroke="none" d=" M320.260742,140.089172   C327.432617,137.604446 334.456024,136.329788 341.585327,135.743774   C377.198395,132.816513 406.855133,144.837784 429.074249,172.779800   C441.660431,188.607803 448.655151,207.145325 450.520142,227.697525   C452.043884,244.489075 449.791290,260.459198 444.231842,276.178497   C439.415894,289.795563 431.410004,301.402924 421.201355,311.378265   C401.049957,331.069122 376.618164,340.879944 348.496643,340.123260   C324.810883,339.485870 303.721313,331.511322 285.731567,315.504120   C264.227020,296.369568 253.890015,272.283783 251.873337,243.974335   C248.788879,200.675415 271.719391,161.392456 310.976868,143.423553   C313.835449,142.115112 316.902039,141.261124 320.260742,140.089172  M343.504913,237.976776   C341.281952,240.661758 338.898651,243.232498 336.881409,246.064026   C334.889038,248.860611 335.449585,252.457611 338.538727,252.974228   C341.989136,253.551270 345.881744,253.925079 349.250366,250.198380   C365.083099,232.682587 381.374908,215.582413 397.445801,198.280899   C404.010956,191.212982 410.450470,184.027847 416.911346,176.863754   C420.845062,172.501846 416.972748,170.166901 414.467529,167.359940   C411.690613,164.248566 410.083008,166.384811 408.003815,168.289871   C401.978882,173.810379 396.881714,180.178436 391.345337,186.141830   C375.508850,203.199631 359.745209,220.325027 343.504913,237.976776  z"/>
<path fill="#34495e" opacity="1.000000" stroke="none" d=" M549.351135,469.999908   C549.341675,476.163361 549.268982,481.827759 549.349609,487.489960   C549.388428,490.217255 548.321960,491.378937 545.527283,491.355774   C531.285767,491.237518 533.923096,492.767883 533.663452,480.475922   C533.575500,476.313324 533.586243,472.146515 533.657593,467.983459   C533.700684,465.470520 532.651306,464.333557 530.099060,464.356445   C523.436646,464.416260 516.772644,464.435150 510.110626,464.354523   C507.297180,464.320496 506.283905,465.578796 506.322327,468.294708   C506.409607,474.456604 506.206543,480.624542 506.382904,486.782532   C506.482758,490.268616 505.132416,491.448578 501.699158,491.399170   C488.405762,491.207733 490.806549,492.571442 490.695953,480.685425   C490.536316,463.529633 490.790192,446.369537 490.565247,429.215240   C490.507172,424.787415 491.917206,423.427307 496.276917,423.568298   C508.062531,423.949432 506.132751,422.337433 506.332153,433.748413   C506.404907,437.911591 506.476593,442.082031 506.311218,446.239685   C506.185150,449.408813 507.285065,450.780670 510.608185,450.690887   C516.933472,450.520050 523.267944,450.559723 529.595764,450.671478   C532.648254,450.725372 533.720154,449.385590 533.673157,446.456268   C533.574219,440.294739 533.767395,434.127655 533.620117,427.968140   C533.542297,424.716553 534.836792,423.581940 538.028198,423.623077   C551.757446,423.800018 549.144470,422.324127 549.314941,434.519501   C549.477844,446.177551 549.350647,457.839630 549.351135,469.999908  z"/>
<path fill="#34495e" opacity="1.000000" stroke="none" d=" M279.675537,450.999298   C279.678345,443.001068 279.773407,435.501068 279.641418,428.005066   C279.584839,424.793091 280.802765,423.565063 284.025909,423.614075   C298.641479,423.836334 295.966370,422.011353 296.172363,435.236359   C296.330688,445.398468 296.035431,455.570770 296.341095,465.726501   C296.631561,475.378082 304.018768,480.594971 312.593597,477.632385   C317.461823,475.950409 319.930054,471.899170 319.992981,464.747498   C320.092621,453.417664 319.990051,442.086060 319.984711,430.755219   C319.981384,423.646729 319.991272,423.597748 327.250427,423.644409   C337.551239,423.710632 336.259735,422.611847 336.323120,432.726959   C336.389954,443.390930 336.518494,454.059631 336.284607,464.718933   C336.058319,475.031342 333.368652,484.702087 323.167297,489.284149   C312.016052,494.292908 300.309967,494.459900 289.750153,487.457642   C282.164886,482.427765 280.393250,474.013275 279.836884,465.491913   C279.533386,460.843964 279.713654,456.164429 279.675537,450.999298  z"/>
<path fill="#34495e" opacity="1.000000" stroke="none" d=" M187.371643,477.531982   C193.027481,475.022614 194.606247,470.458832 194.640610,465.162018   C194.718445,453.164001 194.853317,441.161163 194.585312,429.168762   C194.484787,424.670563 196.085617,423.426544 200.367783,423.562714   C212.693787,423.954651 211.315933,422.031647 211.177536,434.560333   C211.047104,446.368134 212.065872,458.199463 210.392731,469.988159   C208.427200,483.836975 199.370514,492.080261 185.411270,492.320374   C181.922607,492.380341 178.349106,492.548065 174.951080,491.923615   C163.183929,489.761078 156.112457,482.269043 154.852661,470.227905   C153.377304,456.126099 153.999191,441.943604 154.008011,427.790405   C154.009781,424.948303 155.181564,423.573975 158.220444,423.616516   C173.121094,423.825226 169.914886,422.034424 170.352661,434.695282   C170.731995,445.665741 169.240677,456.710419 171.135971,467.602020   C172.711075,476.653656 178.061066,479.800079 187.371643,477.531982  z"/>
<path fill="#34495e" opacity="1.000000" stroke="none" d=" M599.708740,478.091736   C605.523132,478.880890 605.657043,479.512085 605.353760,487.471466   C605.178772,492.067078 602.184814,491.315582 599.461426,491.326141   C589.469849,491.364899 579.475708,491.215698 569.487549,491.404449   C565.548828,491.478882 563.761047,490.383850 563.793457,486.095459   C563.938354,466.945892 563.897888,447.794098 563.781128,428.643982   C563.759399,425.077209 564.862976,423.535797 568.633789,423.598114   C578.789185,423.766052 588.954041,423.835815 599.105408,423.571533   C603.971191,423.444855 604.044067,426.320374 603.933411,429.682129   C603.822510,433.046814 604.866882,437.107544 599.160950,436.927917   C594.503357,436.781342 589.832214,437.057129 585.175293,436.899658   C581.597534,436.778687 579.833191,438.069336 580.154236,441.810883   C580.296143,443.464661 580.258545,445.141998 580.189087,446.803894   C580.074585,449.542969 581.279358,450.727936 584.056458,450.665131   C588.550232,450.563477 593.057617,450.831543 597.541626,450.600586   C601.324280,450.405792 602.688599,451.995514 602.328430,455.585236   C602.196045,456.904541 602.218384,458.253113 602.311157,459.578461   C602.521545,462.584259 601.005737,463.843079 598.173218,463.860382   C594.010437,463.885834 589.838257,464.086426 585.687561,463.872375   C581.681580,463.665802 579.737183,465.017609 580.100647,469.267059   C580.325684,471.898682 580.142334,474.565247 580.142334,478.083130   C586.744873,478.083130 592.993713,478.083130 599.708740,478.091736  z"/>
<path fill="#34495e" opacity="1.000000" stroke="none" d=" M435.904846,432.913330   C447.736267,421.461426 461.693695,421.190735 476.290039,424.003235   C478.201355,424.371552 479.700562,425.451752 479.782898,427.654877   C479.930023,431.592560 480.530396,435.561981 479.214935,439.803833   C475.578857,438.863525 472.138550,437.823853 468.633301,437.097443   C460.335846,435.377838 452.845947,437.116760 447.614716,444.014160   C442.014069,451.398621 441.717621,459.873505 445.476471,468.130249   C449.721008,477.453796 460.373718,480.652924 472.767731,477.043610   C474.780640,476.457367 476.595001,474.980804 479.161346,475.460388   C480.558258,479.288177 479.943573,483.239197 479.599854,487.144897   C479.425781,489.122925 477.725769,489.807007 476.105286,490.256989   C465.435760,493.219543 454.708313,493.833252 444.297913,489.539978   C432.557495,484.698303 425.125488,471.253540 426.137451,457.749847   C426.824158,448.585968 429.004547,440.017944 435.904846,432.913330  z"/>
<path fill="#34495e" opacity="1.000000" stroke="none" d=" M132.009781,466.034729   C119.290062,465.920715 121.535889,465.539673 121.330750,476.081665   C121.256271,479.909393 121.222595,483.741241 121.314140,487.567780   C121.381073,490.365295 120.109718,491.397339 117.402496,491.372101   C102.831329,491.236267 105.128716,493.011810 105.032555,479.952118   C104.909981,463.304932 105.117012,446.654572 104.897667,430.009277   C104.832199,425.041779 106.444946,423.325745 111.523804,423.528229   C121.164429,423.912567 130.834854,423.803040 140.485229,423.574524   C144.844894,423.471283 145.521912,425.754639 145.231110,429.182953   C144.946060,432.543335 146.639526,437.082001 140.535965,437.003357   C135.709015,436.941162 130.879547,437.049286 126.053375,436.961609   C122.819611,436.902832 121.192223,437.954773 121.269623,441.575623   C121.545769,454.493256 119.945114,452.466003 132.004425,452.653809   C133.335953,452.674530 134.668060,452.654541 135.999908,452.656189   C143.389038,452.665344 143.132980,452.675507 143.416061,460.010132   C143.592300,464.576630 142.082123,466.538971 137.489944,466.074066   C135.841705,465.907166 134.162979,466.041351 132.009781,466.034729  z"/>
<path fill="#34495e" opacity="1.000000" stroke="none" d=" M349.998596,465.000000   C349.997528,452.679504 350.098999,440.857635 349.939667,429.039276   C349.884766,424.965515 351.335907,423.470673 355.478760,423.568909   C365.295929,423.801666 375.131500,423.902466 384.941345,423.548828   C390.413879,423.351532 390.160553,426.533051 390.247467,430.235718   C390.338165,434.099884 390.195526,437.263672 384.934753,437.003937   C380.119873,436.766205 375.281891,437.028931 370.454498,437.000641   C367.572754,436.983734 366.257080,438.164093 366.296387,441.196899   C366.476532,455.094849 364.876312,452.357788 377.021454,452.651184   C378.685333,452.691406 380.380310,452.855865 382.010498,452.617767   C387.187622,451.861603 388.677948,454.139893 388.404510,459.090424   C388.037872,465.728333 388.179077,465.706207 381.203522,466.012146   C376.469482,466.219788 370.539703,463.835510 367.315033,467.339020   C364.364288,470.544891 366.476837,476.279053 366.358704,480.889832   C366.055603,492.718750 367.862518,491.112671 355.516388,491.432465   C351.391968,491.539337 349.847748,490.075378 349.965454,485.976288   C350.161224,479.156158 350.006165,472.325958 349.998596,465.000000  z"/>
<path fill="#34495e" opacity="1.000000" stroke="none" d=" M259.987610,423.625671   C262.151031,423.626465 263.816711,423.625275 265.482391,423.628784   C273.224182,423.645020 273.188812,423.806458 273.128906,431.392761   C273.094299,435.776031 271.307129,437.089172 267.085815,437.072021   C253.351059,437.016144 253.352219,437.143341 253.349716,451.043274   C253.347580,462.869598 253.234970,474.697418 253.399017,486.521393   C253.450104,490.203461 252.197479,491.493530 248.501816,491.411346   C235.351715,491.118958 237.131943,493.017059 237.031235,480.018494   C236.934448,467.526642 236.906601,455.031982 237.076553,442.541656   C237.131516,438.502716 235.786362,436.612152 231.614838,436.948975   C229.463409,437.122681 227.281219,437.077728 225.122665,436.957306   C222.753265,436.825134 219.600067,437.962463 218.524292,434.932495   C217.413300,431.803314 217.468903,428.289978 218.633286,425.114990   C219.436676,422.924347 221.790359,423.689270 223.511276,423.679443   C235.503845,423.610931 247.496948,423.632935 259.987610,423.625671  z"/>
<path fill="#34495e" opacity="1.000000" stroke="none" d=" M400.089539,486.732544   C400.064056,467.465454 400.141724,448.667236 399.955841,429.871552   C399.910126,425.248871 401.240265,423.350281 406.198059,423.543945   C417.776031,423.996185 416.237244,422.328308 416.288177,433.723969   C416.364044,450.691132 416.306091,467.658966 416.282898,484.626495   C416.273743,491.321930 416.246674,491.325531 409.746063,491.358551   C407.916351,491.367859 406.080048,491.248871 404.258148,491.365814   C401.215637,491.561157 400.018890,490.053497 400.089539,486.732544  z"/>
</svg>