<?xml version="1.0"?>
<svg width="64" height="80" xmlns="http://www.w3.org/2000/svg" xmlns:svg="http://www.w3.org/2000/svg" clip-rule="evenodd" fill-rule="evenodd" stroke-linejoin="round" version="1.1" xml:space="preserve">
 <g class="layer">
  <title>Layer 1</title>
  <g id="svg_1">
   <path d="m60,61.63l-54,0c-1.66,0 -3,-1.34 -3,-3l0,-44c0,-0.55 0.45,-1 1,-1c0.55,0 1,0.45 1,1l0,44c0,0.55 0.45,1 1,1l3,0l0,-19c0,-0.8 0.32,-1.56 0.88,-2.12c0.56,-0.56 1.32,-0.88 2.12,-0.88l4,0c0.8,0 1.56,0.32 2.12,0.88c0.56,0.56 0.88,1.32 0.88,2.12l0,19l2,0l0,-25c0,-0.8 0.32,-1.56 0.88,-2.12c0.56,-0.56 1.32,-0.88 2.12,-0.88l4,0c0.8,0 1.56,0.32 2.12,0.88c0.56,0.56 0.88,1.32 0.88,2.12l0,25l2,0l0,-23c0,-1.66 1.34,-3 3,-3l4,0c1.66,0 3,1.34 3,3l0,23l2,0l0,-31c0,-0.8 0.32,-1.56 0.88,-2.12c0.56,-0.56 1.32,-0.88 2.12,-0.88l4,0c0.8,0 1.56,0.32 2.12,0.88c0.56,0.56 0.88,1.32 0.88,2.12l0,31l5,0c0.55,0 1,0.45 1,1c0,0.55 -0.45,1 -1,1zm-43,-2l0,-19c0,-0.27 -0.11,-0.52 -0.29,-0.71c-0.19,-0.19 -0.45,-0.29 -0.71,-0.29l-4,0c-0.27,0 -0.52,0.1 -0.71,0.29c-0.18,0.19 -0.29,0.44 -0.29,0.71l0,19l6,0zm12,0l0,-25c0,-0.27 -0.11,-0.52 -0.29,-0.71c-0.19,-0.18 -0.44,-0.29 -0.71,-0.29l-4,0c-0.27,0 -0.52,0.11 -0.71,0.29c-0.18,0.19 -0.29,0.44 -0.29,0.71l0,25l6,0zm12,0l0,-23c0,-0.55 -0.45,-1 -1,-1l-4,0c-0.55,0 -1,0.45 -1,1l0,23l6,0zm12,0l0,-31c0,-0.27 -0.1,-0.52 -0.29,-0.71c-0.19,-0.18 -0.44,-0.29 -0.71,-0.29l-4,0c-0.27,0 -0.52,0.11 -0.71,0.29c-0.19,0.19 -0.29,0.44 -0.29,0.71l0,31l6,0zm-37,-27.88c-0.07,1.05 -0.94,1.88 -2,1.88c-1.1,0 -2,-0.9 -2,-2c0,-1.1 0.9,-2 2,-2c0.41,0 0.79,0.12 1.1,0.33l8.9,-4.45c0.07,-1.05 0.94,-1.88 2,-1.88c0.86,0 1.59,0.54 1.87,1.3l8.59,1.43c0.36,-0.45 0.92,-0.73 1.54,-0.73c0.32,0 0.62,0.07 0.89,0.21l9.11,-6.08c0,-0.04 0,-0.09 0,-0.13c0,-1.1 0.9,-2 2,-2c1.1,0 2,0.9 2,2c0,1.1 -0.9,2 -2,2c-0.32,0 -0.62,-0.07 -0.89,-0.21l-9.11,6.08c0,0.04 0,0.09 0,0.13c0,1.1 -0.9,2 -2,2c-0.86,0 -1.59,-0.54 -1.87,-1.3l-8.59,-1.43c-0.36,0.45 -0.92,0.73 -1.54,0.73c-0.41,0 -0.79,-0.12 -1.1,-0.33l-8.9,4.45z" fill="#3498db" id="svg_2"/>
  </g>
 </g>
</svg>