<?xml version="1.0"?>
<svg width="128" height="160" xmlns="http://www.w3.org/2000/svg" xmlns:svg="http://www.w3.org/2000/svg" data-name="Layer 1">
 <title>business management final</title>
 <g class="layer">
  <title>Layer 1</title>
  <path d="m76.92,26.23a9.91,9.91 0 1 0 -9.76,8.17a10,10 0 0 0 9.76,-8.17zm-3.91,-0.74a5.98,5.98 0 1 1 -4.77,-6.99a5.97,5.97 0 0 1 4.77,6.99z" fill="#3498db" id="svg_1"/>
  <path d="m82.34,61.62l-16.86,-9.4l-1.34,-8.15a1.99,1.99 0 1 0 -3.92,0.66l1.65,10.05l21.2,11.83a2.15,2.15 0 0 1 0.11,3.53a1.46,1.46 0 0 1 -1.41,0.13l-22.91,-9.88l-2.68,-13.52a1.99,1.99 0 1 0 -3.9,0.78l3.09,15.59l24.83,10.71a5.36,5.36 0 0 0 5.17,-0.47a5.89,5.89 0 0 0 2.2,-2.72a7.94,7.94 0 0 1 0.45,2.64l0,67a1.99,1.99 0 1 0 3.98,0l0,-67a12,12 0 0 0 -9.66,-11.78z" fill="#3498db" id="svg_2"/>
  <path d="m69.09,49.66l1.78,0.99l0.96,-5.07a15.25,15.25 0 0 0 -0.5,-7.84a13.76,13.76 0 0 1 -4,0.65a10.54,10.54 0 0 1 0.76,5.19l1,6.08z" fill="#3498db" id="svg_3"/>
  <path d="m63.52,89.72l3.24,-17.21l-3.74,-1.62l-2.55,13.56l-0.12,0.63l-19.7,-3.61l0.16,-0.82l6.97,-37.05c1.2,-6.43 4.98,-9.27 8.9,-9.99a13.84,13.84 0 0 1 -1,-1.28a14.63,14.63 0 0 1 -1.24,-2.25c-4.86,1.47 -9.2,5.47 -10.57,12.78l-7.87,41.82l1.56,0.29l4.43,47.66l0,9.77l23.17,0l0,-4.52a7.16,7.16 0 0 0 -6.95,-7.34l-2.24,0l5.32,-41.23l2.23,0.41zm-12.07,44.82l6.76,0a3.18,3.18 0 0 1 2.98,3.34l0,0.52l-15.22,0l0,-5.86l-4.34,-46.83l15.74,2.88l-5.92,45.95z" fill="#3498db" id="svg_4"/>
 </g>
</svg>