<?xml version="1.0"?>
<svg width="64" height="80" xmlns="http://www.w3.org/2000/svg" xmlns:svg="http://www.w3.org/2000/svg" enable-background="new 0 0 64 64" version="1.1" xml:space="preserve">
 <g class="layer">
  <title>Layer 1</title>
  <g id="svg_1">
   <polygon fill="#3498db" id="svg_2" points="26,43.00002136826515 28,43.00002136826515 28,18.323995977640152 24.216999053955078,18.323995977640152 32,9.51100006699562 39.78300094604492,18.323995977640152 36,18.323995977640152 36,43.00002136826515 38,43.00002136826515 38,20.323995977640152 44.21699905395508,20.323995977640152 32,6.4890011847019196 19.783000946044922,20.323995977640152 26,20.323995977640152 "/>
   <path d="m15,69l34,0l0,-24l-34,0l0,24zm32,-2l-11,0l0,-20l11,0l0,20zm-24,-20l5,0l0,1.51c0,0.27 -0.22,0.49 -0.49,0.49l-4.02,0c-0.27,0 -0.49,-0.22 -0.49,-0.49l0,-1.51zm-6,0l4,0l0,1.51c0,1.37 1.12,2.49 2.49,2.49l4.02,0c1.37,0 2.49,-1.12 2.49,-2.49l0,-1.51l4,0l0,20l-17,0l0,-20z" fill="#3498db" id="svg_3"/>
   <polygon fill="#3498db" id="svg_4" points="18.954999923706055,36.000009924173355 17,36.000009924173355 17,43.00002136826515 19,43.00002136826515 19,38.00002136826515 23.045000076293945,38.00002136826515 14,26.370994955301285 4.954999923706055,38.00002136826515 9,38.00002136826515 9,69.00002136826515 11,69.00002136826515 11,36.000009924173355 9.045000076293945,36.000009924173355 14,29.6289943754673 "/>
   <polygon fill="#3498db" id="svg_5" points="50,21.370994955301285 40.95500183105469,32.99999848008156 45,32.99999848008156 45,43.00002136826515 47,43.00002136826515 47,30.999994665384293 45.04499816894531,30.999994665384293 50,24.6289943754673 54.95500183105469,30.999994665384293 53,30.999994665384293 53,69.00002136826515 55,69.00002136826515 55,32.99999848008156 59.04499816894531,32.99999848008156 "/>
  </g>
 </g>
</svg>